<svg width="24" height="24" viewBox="0 0 24 24" fill="none" xmlns="http://www.w3.org/2000/svg">
<rect width="24" height="24" rx="12" fill="url(#paint0_linear_89_2304)" style=""/>
<path d="M12.0002 6C12.1561 6.00004 12.3083 6.04687 12.4374 6.13446C12.5664 6.22206 12.6664 6.34641 12.7244 6.49148C13.0927 7.41601 13.5494 7.99932 14.0144 8.36768C14.4764 8.73603 14.9841 8.92073 15.5022 8.98751C16.5707 9.12629 17.6673 8.76629 18.3446 8.46681L18.3623 8.4595C18.459 8.41672 18.5672 8.36872 18.6598 8.33429H18.665C18.8474 8.26441 19.0457 8.24742 19.2372 8.28524C19.3747 8.31586 19.504 8.3759 19.6163 8.46127C19.7285 8.54663 19.821 8.65531 19.8875 8.77985C20.0165 9.01986 20.0019 9.26195 19.9967 9.34125V9.34334C19.9894 9.44143 19.9728 9.55621 19.9593 9.65534C19.6867 11.5681 19.4099 13.4797 19.1426 15.3924C19.0073 16.3525 18.4986 16.9504 17.5466 17.2269C13.9204 18.2577 10.08 18.2577 6.45388 17.2269C5.50192 16.9504 4.99212 16.3525 4.85791 15.3924C4.59053 13.4797 4.31378 11.5681 4.0412 9.65534C4.02482 9.55185 4.01232 9.44777 4.00375 9.34334V9.34125C3.98731 9.14757 4.02515 8.95313 4.11299 8.77985C4.17947 8.65531 4.27199 8.54663 4.38421 8.46127C4.49644 8.3759 4.62573 8.31586 4.76324 8.28524C4.95469 8.24709 5.15298 8.26372 5.33545 8.33324L5.33962 8.33533C5.43325 8.36872 5.54145 8.41672 5.63821 8.4595L5.6559 8.46681C6.33215 8.76629 7.42873 9.12629 8.49618 8.98855C9.04083 8.92387 9.55692 8.70895 9.98707 8.36768C10.45 7.99932 10.9068 7.41601 11.2761 6.49148C11.3341 6.34641 11.434 6.22206 11.5631 6.13446C11.6922 6.04687 11.8444 6.00004 12.0002 6Z" fill="white" style="fill:white;fill-opacity:1;"/>
<defs>
<linearGradient id="paint0_linear_89_2304" x1="12" y1="0" x2="12" y2="24" gradientUnits="userSpaceOnUse">
<stop stop-color="#CD7F32" style="stop-color:#CD7F32;stop-color:color(display-p3 0.8039 0.4980 0.1961);stop-opacity:1;"/>
<stop offset="1" stop-color="#674019" style="stop-color:#674019;stop-color:color(display-p3 0.4039 0.2502 0.0985);stop-opacity:1;"/>
</linearGradient>
</defs>
</svg>
